<?xml version="1.0" standalone="no"?>
<!DOCTYPE svg PUBLIC "-//W3C//DTD SVG 20010904//EN"
 "http://www.w3.org/TR/2001/REC-SVG-20010904/DTD/svg10.dtd">
<svg version="1.0" xmlns="http://www.w3.org/2000/svg"
 width="1461.000000pt" height="190.000000pt" viewBox="0 0 1461.000000 190.000000"
 preserveAspectRatio="xMidYMid meet">

<g transform="translate(0.000000,190.000000) scale(0.100000,-0.100000)"
fill="#000000" stroke="none">
<path d="M0 1323 l0 -577 25 51 c59 117 189 192 395 229 186 32 583 11 763
-42 23 -7 22 28 -2 82 -39 85 -129 114 -352 114 -166 0 -307 -15 -504 -56
-189 -39 -182 -39 -188 -18 -12 41 -48 285 -45 296 8 23 358 80 608 99 191 14
414 6 531 -20 234 -53 365 -175 413 -388 13 -59 16 -137 16 -442 l0 -371 -230
0 -230 0 0 75 c0 41 -2 75 -4 75 -3 0 -37 -18 -78 -39 -88 -47 -242 -102 -358
-127 -116 -25 -348 -26 -440 -1 -145 39 -251 114 -296 211 l-24 51 0 -262 0
-263 7305 0 7305 0 0 140 0 140 -725 0 -725 0 0 710 0 710 725 0 725 0 0 100
0 100 -7305 0 -7305 0 0 -577z m4845 392 c195 -35 331 -93 421 -180 61 -60
110 -153 120 -228 l7 -47 -239 0 -239 0 -16 39 c-33 78 -153 106 -424 99 -186
-5 -230 -15 -261 -63 -13 -20 -15 -33 -8 -52 22 -62 100 -83 379 -103 354 -26
547 -61 665 -120 84 -43 125 -82 162 -158 32 -64 33 -71 33 -187 0 -110 -2
-125 -28 -181 -77 -166 -257 -255 -577 -284 -158 -15 -452 -8 -580 14 -268 45
-434 136 -506 277 -30 60 -54 139 -54 182 l0 27 239 0 239 0 7 -29 c10 -48 62
-89 140 -114 63 -20 91 -22 280 -22 223 0 295 10 334 46 43 40 39 105 -10 141
-33 25 -156 43 -384 58 -409 26 -595 79 -720 205 -79 79 -100 134 -100 265 0
83 3 102 28 151 72 147 270 247 552 279 117 13 434 4 540 -15z m1922 14 c522
-58 834 -358 810 -780 -15 -273 -181 -495 -454 -609 -284 -118 -676 -131 -987
-33 -222 70 -391 204 -477 378 -55 111 -72 202 -66 345 7 174 57 296 171 417
127 137 305 225 537 267 148 27 313 32 466 15z m-3621 -40 c156 -21 249 -75
299 -174 27 -54 30 -67 30 -159 0 -90 -3 -107 -28 -158 -32 -64 -87 -117 -160
-151 l-48 -24 43 -12 c109 -33 203 -103 246 -185 25 -46 27 -61 27 -161 0
-105 -2 -114 -33 -177 -36 -74 -78 -115 -158 -154 -101 -50 -157 -53 -836 -54
l-628 0 0 710 0 710 584 0 c363 0 614 -4 662 -11z m5094 -504 l0 -515 475 0
475 0 0 -195 0 -195 -705 0 -705 0 0 710 0 710 230 0 230 0 0 -515z m1570 148
c0 -407 6 -465 54 -545 61 -103 171 -152 346 -152 149 -1 233 26 305 97 89 90
89 88 93 560 l3 407 235 0 236 0 -5 -437 c-5 -490 -9 -528 -81 -671 -125 -248
-418 -367 -856 -349 -457 20 -702 186 -771 520 -17 82 -19 140 -19 515 l0 422
230 0 230 0 0 -367z m3150 172 l0 -195 -305 0 -305 0 0 -515 0 -515 -235 0
-235 0 0 515 0 515 -305 0 -305 0 0 195 0 195 845 0 845 0 0 -195z"/>
<path d="M6423 1336 c-153 -29 -275 -113 -325 -221 -34 -75 -32 -181 5 -257
72 -146 237 -222 482 -222 245 0 411 77 482 222 37 76 38 180 4 259 -41 93
-146 172 -277 208 -82 22 -280 28 -371 11z"/>
<path d="M2360 1244 l0 -115 288 3 c330 3 338 5 361 77 11 34 11 51 2 82 -20
67 -30 69 -361 69 l-290 0 0 -116z"/>
<path d="M2360 735 l0 -115 329 0 c329 0 330 0 356 23 33 28 45 100 25 148
-24 56 -45 59 -395 59 l-315 0 0 -115z"/>
<path d="M13620 1250 l0 -100 475 0 475 0 0 -160 0 -160 -475 0 -475 0 0 -100
0 -100 495 0 495 0 0 360 0 360 -495 0 -495 0 0 -100z"/>
<path d="M587 780 c-89 -23 -117 -51 -117 -117 0 -47 34 -84 94 -103 88 -28
370 2 568 61 l68 20 0 49 c0 56 11 51 -160 75 -131 19 -402 28 -453 15z"/>
</g>
</svg>
